<?xml version="1.0" standalone="no"?>
<!DOCTYPE svg PUBLIC "-//W3C//DTD SVG 20010904//EN"
 "http://www.w3.org/TR/2001/REC-SVG-20010904/DTD/svg10.dtd">
<svg version="1.0" xmlns="http://www.w3.org/2000/svg"
 width="499.000000pt" height="499.000000pt" viewBox="0 0 499.000000 499.000000"
 preserveAspectRatio="xMidYMid meet">
<metadata>
Created by potrace 1.14, written by Peter Selinger 2001-2017
</metadata>
<g transform="translate(0.000000,499.000000) scale(0.100000,-0.100000)"
fill="#000000" stroke="none">
<path d="M1660 4736 c-85 -63 -122 -125 -114 -189 2 -16 -4 -43 -12 -59 -13
-26 -14 -32 -2 -40 9 -7 7 -8 -9 -5 -16 3 -33 -5 -60 -30 -21 -19 -27 -28 -13
-19 52 34 70 37 123 21 64 -19 100 -19 168 1 46 13 116 60 106 71 -5 4 -117
25 -147 27 -14 1 -44 -4 -67 -10 -24 -7 -43 -9 -43 -6 0 4 21 21 48 37 44 28
54 30 142 30 91 0 99 2 150 33 52 32 117 87 150 127 14 17 11 18 -85 12 -150
-10 -210 -34 -262 -105 -28 -39 -63 -71 -76 -72 -4 0 2 13 14 30 22 29 61 158
52 173 -7 12 -16 8 -63 -27z"/>
<path d="M3275 4743 c3 -15 8 -40 10 -56 2 -15 15 -50 29 -77 22 -44 23 -49 7
-40 -10 5 -35 32 -54 58 -22 31 -52 57 -80 71 -54 26 -154 43 -228 39 l-54 -3
55 -54 c100 -98 190 -133 285 -113 45 10 48 9 119 -38 87 -57 104 -76 38 -43
-26 13 -68 24 -92 25 -49 2 -160 -19 -160 -30 0 -11 67 -53 107 -68 50 -17
109 -17 169 1 57 17 78 13 117 -23 15 -14 27 -21 27 -15 0 21 -77 74 -97 66
-15 -5 -16 -4 -6 8 9 11 8 18 -3 33 -8 11 -14 34 -14 50 0 101 -70 202 -158
230 -21 7 -22 5 -17 -21z"/>
<path d="M1367 4559 c-45 -51 -77 -116 -77 -152 0 -15 5 -47 12 -71 14 -53 -1
-96 -57 -161 -34 -40 -34 -40 -26 -10 13 52 -11 210 -33 210 -16 0 -78 -131
-83 -176 -3 -31 2 -60 16 -97 28 -69 27 -92 -8 -166 -37 -80 -62 -162 -76
-251 -9 -57 -24 -94 -25 -59 0 24 -45 115 -80 162 -20 27 -25 30 -33 16 -14
-24 -17 -146 -5 -192 9 -38 70 -122 87 -122 5 0 15 17 23 38 l15 37 -3 -55
c-1 -30 -3 -57 -4 -60 -3 -6 -3 1 5 -85 l6 -70 -24 50 c-37 76 -172 203 -152
142 2 -7 7 -36 10 -66 8 -77 44 -151 95 -192 76 -61 106 -99 125 -157 9 -32
30 -87 46 -124 18 -44 24 -68 16 -68 -7 0 -2 -8 9 -18 12 -9 34 -39 50 -67 15
-27 48 -78 71 -112 24 -35 42 -63 39 -63 -25 0 -56 30 -74 70 -12 27 -38 65
-59 86 -34 33 -138 90 -201 109 -21 6 -22 5 -10 -22 42 -97 133 -185 217 -209
31 -9 72 -24 91 -33 19 -8 38 -15 42 -16 3 0 51 -44 106 -97 72 -70 95 -98 83
-101 -10 -3 -8 -5 7 -6 28 -1 74 -24 91 -45 16 -19 17 -19 -39 -3 -44 13 -204
15 -236 3 -22 -9 -5 -23 93 -80 96 -56 149 -67 248 -49 93 16 155 15 185 -2
24 -14 23 -14 -29 -15 -58 0 -231 -37 -231 -49 0 -7 68 -38 150 -66 65 -23
159 -21 217 5 97 44 192 45 353 3 58 -15 62 -17 38 -24 -19 -5 -45 -1 -80 13
-71 27 -157 26 -231 -2 -56 -21 -147 -68 -147 -75 0 -3 17 -9 38 -14 147 -39
268 -27 350 36 20 15 52 28 78 31 36 4 50 0 79 -22 41 -31 42 -39 15 -73 -17
-23 -35 -70 -45 -125 -4 -17 12 -35 21 -25 3 2 7 17 10 33 6 40 25 85 45 112
l17 22 20 -24 c10 -14 25 -47 32 -73 19 -74 19 -75 31 -67 18 10 2 83 -31 140
l-29 52 39 27 c29 20 48 26 70 23 17 -3 33 -1 36 4 3 4 -2 8 -11 8 -34 0 -2
19 48 29 28 6 68 14 87 18 39 8 122 7 157 -2 13 -3 23 -1 23 5 0 5 -17 10 -37
10 -48 0 -42 4 47 28 l75 21 -30 -24 c-16 -14 -33 -25 -37 -25 -20 0 -5 -18
27 -33 31 -15 58 -21 129 -31 11 -2 39 1 62 5 57 11 205 70 199 79 -5 8 -106
37 -155 44 -14 3 -50 5 -80 6 l-55 1 34 14 c18 8 41 15 51 15 10 0 20 4 22 9
3 9 108 64 108 57 0 -10 -55 -56 -67 -56 -7 0 -13 -5 -13 -11 0 -5 4 -7 10 -4
5 3 29 1 52 -6 65 -17 137 -14 196 10 59 24 150 79 171 104 12 15 9 17 -35 18
-27 1 -69 2 -94 4 -24 1 -71 -3 -105 -10 -33 -7 -61 -12 -63 -10 -2 2 16 15
41 29 34 20 66 28 138 35 52 5 119 19 149 30 66 25 144 84 173 130 l21 34 -65
-6 c-106 -9 -175 -41 -246 -113 -34 -35 -74 -66 -89 -70 -21 -5 -4 16 76 94
58 56 111 102 120 102 9 0 21 5 27 11 5 5 33 16 62 24 103 27 170 83 236 198
l27 48 -28 -7 c-43 -10 -156 -69 -193 -100 -18 -15 -45 -53 -61 -85 -26 -51
-63 -89 -76 -77 -2 3 8 20 22 39 14 19 48 71 75 115 27 45 57 85 66 88 13 5
14 9 5 15 -10 6 -7 21 13 67 15 32 35 86 46 119 19 61 55 107 132 168 20 15
45 47 56 71 24 48 44 144 39 184 -3 26 -5 25 -67 -37 -35 -36 -72 -83 -82
-105 l-18 -40 1 128 c1 119 2 125 14 89 8 -21 14 -39 14 -41 0 -1 13 10 30 24
52 46 75 108 72 195 -1 42 -5 86 -10 99 -8 22 -11 20 -48 -32 -22 -31 -46 -75
-53 -99 -22 -72 -25 -76 -28 -39 -7 76 -62 260 -97 328 -20 39 -21 89 -1 134
23 57 26 90 10 146 -15 52 -64 142 -76 142 -12 0 -33 -104 -34 -167 0 -70 -5
-69 -55 5 -30 46 -31 49 -25 125 5 52 3 93 -5 123 -15 51 -87 141 -102 126 -6
-6 -10 -45 -11 -89 -1 -89 11 -119 69 -176 21 -20 35 -39 32 -43 -4 -3 -15 4
-25 15 -18 21 -39 30 -28 11 8 -13 4 -13 -40 6 -41 17 -158 26 -189 15 -17 -7
-16 -10 15 -39 70 -66 185 -104 247 -81 33 13 56 -3 100 -69 49 -71 105 -182
93 -182 -5 0 -15 15 -22 33 -23 55 -96 124 -155 147 -62 23 -104 26 -104 8 0
-20 33 -70 71 -107 39 -39 98 -68 153 -75 74 -9 81 -19 132 -196 27 -94 29
-114 13 -104 -6 3 -3 -9 7 -27 13 -26 18 -61 19 -145 2 -62 -1 -118 -6 -125
-5 -9 -9 12 -9 53 0 37 -5 80 -12 95 -18 42 -64 98 -110 135 l-41 32 7 -73 c9
-110 44 -175 115 -217 45 -26 55 -59 41 -135 -18 -102 -42 -182 -51 -168 -4 7
-3 22 3 32 15 28 5 146 -15 187 -17 34 -69 100 -80 100 -10 0 -19 -62 -19
-125 0 -69 15 -106 66 -163 42 -47 46 -59 31 -102 -23 -65 -75 -173 -81 -167
-3 3 -1 14 5 25 18 34 22 81 10 130 -12 47 -57 142 -68 142 -12 0 -43 -130
-43 -180 0 -40 7 -62 31 -101 17 -28 31 -60 31 -71 0 -37 -179 -276 -180 -241
0 7 15 30 34 50 64 72 81 140 61 246 -10 50 -18 53 -47 14 -66 -85 -87 -165
-64 -240 19 -65 5 -98 -66 -158 -77 -64 -137 -104 -144 -96 -3 3 2 12 13 21
10 8 32 26 50 41 59 48 104 181 86 253 -5 20 -10 17 -64 -40 -76 -80 -92 -115
-94 -206 -2 -89 -11 -100 -120 -152 -74 -35 -210 -87 -245 -95 -8 -2 -44 -11
-80 -20 -35 -9 -85 -18 -110 -19 -25 -1 -51 -6 -58 -10 -7 -4 -22 -9 -34 -11
-52 -10 -120 -38 -157 -66 -23 -16 -45 -29 -50 -29 -6 0 -31 14 -57 31 -51 35
-163 73 -240 82 -185 21 -532 155 -555 215 -5 13 -9 47 -9 76 0 82 -26 143
-86 203 -29 29 -58 53 -64 53 -15 0 -5 -108 15 -170 17 -50 43 -83 93 -118 17
-13 32 -30 32 -38 0 -12 -2 -12 -17 1 -10 7 -45 34 -78 59 -33 24 -73 58 -90
75 -31 33 -31 30 -21 178 3 40 1 75 -5 78 -5 4 -9 14 -9 24 0 20 -66 111 -80
111 -12 0 -18 -28 -24 -98 -6 -72 16 -142 59 -185 33 -33 45 -57 28 -57 -11 1
-100 117 -141 184 l-34 55 33 58 c44 77 50 173 16 247 l-23 49 -15 -24 c-26
-39 -59 -137 -59 -174 0 -18 9 -54 20 -80 29 -67 9 -47 -28 27 -41 86 -63 154
-55 175 4 10 23 35 43 55 41 42 60 93 60 159 0 59 -11 119 -21 119 -13 0 -85
-111 -99 -154 -12 -36 -11 -61 5 -146 11 -60 -13 -10 -29 61 -37 159 -32 185
42 239 55 39 88 110 96 203 6 63 5 67 -12 58 -28 -15 -108 -104 -128 -142 -12
-24 -17 -54 -16 -101 1 -38 -3 -70 -9 -73 -17 -11 -10 234 8 270 9 17 12 30 6
32 -11 4 -4 39 33 169 32 109 49 128 123 143 92 18 195 99 216 169 8 29 -10
29 -99 -3 -80 -28 -130 -70 -157 -134 -11 -24 -22 -42 -25 -39 -9 9 64 141
111 201 41 52 48 57 73 50 47 -12 121 -5 165 16 49 24 117 81 117 98 0 17
-162 8 -200 -12 -37 -19 -44 -19 -35 2 4 11 -5 7 -24 -11 -44 -42 -38 -22 8
31 22 24 46 64 54 87 16 46 15 133 0 161 -9 15 -15 11 -46 -26z m-350 -981
c-3 -8 -6 -5 -6 6 -1 11 2 17 5 13 3 -3 4 -12 1 -19z m738 -1326 c-16 -2 -39
4 -53 15 -47 35 -34 44 23 16 52 -26 55 -28 30 -31z m172 -54 c15 -6 62 -22
103 -34 62 -18 69 -23 43 -24 -18 -2 -39 -3 -45 -4 -7 -1 -25 6 -40 16 -14 10
-46 27 -70 38 -46 21 -38 28 9 8z"/>
<path d="M2560 4483 c-37 -25 -40 -32 -40 -98 0 -54 2 -61 20 -61 14 0 20 7
20 22 0 24 -4 23 113 15 11 -1 17 -9 17 -24 0 -15 6 -23 18 -24 15 -1 21 10
30 61 20 104 18 112 -25 120 -68 11 -128 7 -153 -11z m146 -26 c1 -1 -1 -17
-3 -34 -4 -27 -9 -32 -27 -29 -11 3 -43 5 -69 5 -44 1 -48 3 -45 23 4 32 44
49 98 43 24 -4 45 -7 46 -8z"/>
<path d="M2232 4424 c-37 -15 -43 -25 -36 -60 12 -61 42 -77 111 -60 48 11 33
37 -20 34 -36 -3 -41 0 -48 24 -8 29 -7 30 59 43 38 8 44 -2 46 -72 1 -44 0
-47 -31 -55 -19 -5 -33 -15 -33 -24 0 -12 8 -14 38 -8 72 13 75 18 68 97 -4
39 -12 77 -18 84 -14 17 -94 15 -136 -3z"/>
<path d="M2980 4426 c0 -18 37 -28 44 -11 6 17 -3 25 -26 25 -10 0 -18 -6 -18
-14z"/>
<path d="M2808 4423 c-10 -2 -22 -20 -27 -41 -18 -68 -17 -77 4 -77 15 0 21
10 28 43 9 46 17 49 77 32 25 -7 36 -7 42 3 4 6 4 15 0 18 -7 6 -98 30 -104
28 -2 -1 -11 -3 -20 -6z"/>
<path d="M2037 4367 c-54 -20 -58 -23 -53 -48 6 -33 45 -99 57 -99 20 0 20 29
0 67 l-20 39 33 12 c53 20 66 15 84 -28 11 -25 24 -40 35 -40 20 0 21 6 6 51
-13 38 -43 69 -68 68 -9 0 -42 -10 -74 -22z"/>
<path d="M2937 4316 l-28 -74 -35 10 c-39 10 -49 7 -41 -15 7 -18 85 -31 101
-17 18 14 69 148 61 160 -15 24 -32 5 -58 -64z"/>
<path d="M1880 4360 c-11 -6 -12 -12 -4 -20 14 -14 44 -2 37 16 -6 16 -12 17
-33 4z"/>
<path d="M3018 4314 c-20 -45 -20 -47 -2 -71 11 -13 42 -35 71 -48 58 -26 58
-27 103 49 19 31 20 40 9 47 -21 13 -22 12 -47 -31 -26 -45 -27 -46 -70 -24
-42 21 -43 24 -22 71 10 23 16 44 12 47 -15 16 -35 1 -54 -40z"/>
<path d="M1912 4311 c-11 -6 -7 -20 18 -65 30 -52 47 -66 63 -49 7 6 -53 123
-63 123 -3 0 -11 -4 -18 -9z"/>
<path d="M1830 4263 c-33 -13 -90 -66 -90 -84 0 -31 41 -79 67 -79 23 0 93 39
93 52 0 19 -25 18 -52 -2 l-30 -22 -27 26 c-26 27 -26 27 -6 42 11 9 32 22 47
30 42 22 45 -3 4 -27 -37 -21 -44 -33 -26 -44 17 -10 90 46 90 69 0 38 -29 54
-70 39z"/>
<path d="M2579 4238 c-1 -13 0 -27 1 -33 1 -5 4 -27 6 -47 3 -34 0 -39 -24
-44 -15 -4 -32 -10 -37 -15 -6 -4 -33 -6 -60 -3 -120 12 -146 10 -228 -11 -47
-12 -99 -30 -114 -40 -53 -35 -218 -159 -221 -167 -2 -4 -9 -5 -14 -2 -7 4 -8
2 -4 -4 4 -7 1 -12 -9 -12 -10 0 -13 5 -9 12 4 6 3 8 -4 4 -6 -3 -17 1 -26 9
-10 10 -17 12 -21 4 -4 -6 2 -13 14 -16 12 -3 21 -9 21 -13 0 -15 31 -20 45
-7 14 13 216 142 225 143 3 0 32 9 65 19 33 10 74 20 90 21 92 7 123 6 150 -8
23 -13 36 -14 65 -4 31 10 43 11 88 7 19 -2 16 -162 -4 -187 -8 -10 -12 -12
-8 -4 5 10 1 9 -14 -3 -11 -11 -18 -25 -15 -33 3 -8 -6 -24 -20 -37 -16 -14
-27 -36 -30 -60 -3 -21 -14 -48 -25 -60 -12 -12 -20 -24 -20 -27 3 -14 -38
-129 -55 -152 -16 -21 -18 -36 -13 -80 14 -126 43 -237 47 -182 1 10 5 -12 9
-51 3 -38 10 -79 13 -90 6 -18 -3 -25 -81 -58 -168 -71 -321 -177 -358 -248
-8 -16 -29 -36 -47 -45 -49 -26 -127 -94 -121 -107 2 -7 -14 -24 -36 -39 -40
-25 -40 -50 -1 -28 11 6 24 9 28 8 4 -1 19 4 33 11 13 8 47 19 75 25 44 10 50
15 50 36 0 21 11 30 60 55 53 26 69 29 140 28 95 -3 202 12 268 37 59 22 61
10 12 -54 -19 -25 -34 -46 -32 -47 8 -3 78 -10 110 -11 20 -1 37 -5 37 -10 0
-22 124 7 141 33 3 6 22 11 43 13 29 3 47 -4 93 -34 30 -21 62 -36 69 -33 8 3
14 1 14 -5 0 -7 13 -6 40 0 40 10 61 42 45 67 -3 6 -1 11 5 11 7 0 8 6 1 19
-6 10 -8 21 -5 23 2 3 -2 18 -11 34 -8 16 -18 44 -21 62 -3 17 -9 32 -13 32
-4 0 -18 19 -31 43 -13 23 -38 60 -55 82 -17 22 -45 61 -61 87 -16 27 -32 48
-37 48 -4 0 -1 10 8 23 11 17 13 42 10 102 -3 44 -7 91 -10 105 -14 71 -19 89
-42 134 -20 40 -23 53 -14 72 6 13 14 24 19 24 4 0 8 8 8 18 1 52 16 161 26
189 10 27 9 43 -6 90 -10 32 -26 69 -36 83 -43 62 -43 66 -2 90 29 18 51 22
102 21 58 -1 115 -7 115 -11 0 -1 9 -3 19 -5 54 -10 127 -41 181 -75 33 -21
67 -40 75 -42 8 -2 21 -9 28 -16 14 -13 36 -7 27 7 -2 5 -19 16 -37 25 -18 9
-58 35 -88 56 -55 40 -158 95 -172 92 -5 -1 -8 2 -8 7 0 19 -159 31 -260 19
-25 -3 -49 -3 -55 1 -5 3 -19 6 -31 7 -41 2 -54 13 -54 43 0 16 4 32 9 36 12
7 -7 65 -20 65 -5 0 -10 -10 -10 -22z m62 -225 c21 -26 47 -118 54 -190 l6
-63 -35 21 c-20 12 -34 24 -31 29 2 4 -2 16 -10 26 -16 21 -22 194 -7 194 5 0
15 -8 23 -17z m360 -1354 c-9 -22 -10 -22 -10 -3 -1 11 2 24 6 27 12 12 14 0
4 -24z"/>
<path d="M3244 4252 c-5 -4 -24 -28 -41 -53 -29 -41 -31 -48 -17 -60 12 -10
17 -9 28 7 8 10 22 29 32 42 l19 23 32 -23 c39 -28 41 -47 8 -86 -18 -22 -21
-32 -13 -40 18 -18 78 44 78 78 0 36 -103 128 -126 112z"/>
<path d="M1569 4113 c-32 -31 -59 -63 -59 -72 0 -15 110 -111 127 -111 5 0 38
29 73 65 64 65 65 66 50 93 -9 15 -25 28 -37 30 -12 2 -29 14 -37 28 -25 37
-52 29 -117 -33z m88 1 c2 -6 -10 -25 -27 -44 -32 -36 -36 -45 -21 -54 5 -3
25 10 44 29 34 34 56 43 71 28 7 -7 -73 -93 -87 -93 -5 0 -26 15 -47 34 l-38
34 42 41 c39 39 56 46 63 25z"/>
<path d="M3950 4073 c-45 -119 -43 -180 7 -261 l21 -33 30 60 c25 50 29 70 26
111 -3 40 -44 162 -59 178 -2 2 -13 -23 -25 -55z"/>
<path d="M994 4065 c-38 -81 -40 -171 -5 -232 14 -24 28 -43 32 -43 4 0 20 25
35 55 23 48 26 64 21 114 -4 33 -17 83 -31 112 l-24 54 -28 -60z"/>
<path d="M3435 4089 c-4 -5 1 -18 12 -27 43 -40 47 -51 28 -72 -24 -27 -33
-25 -67 10 -39 42 -25 61 16 21 24 -23 35 -28 43 -20 15 15 -48 79 -76 79 -21
0 -51 -25 -51 -41 0 -16 83 -97 105 -103 24 -7 85 41 85 67 0 17 -66 97 -81
97 -4 0 -11 -5 -14 -11z"/>
<path d="M3383 3929 c6 -17 -10 -39 -26 -39 -5 0 -3 7 4 16 7 9 -15 -2 -51
-25 -81 -52 -89 -61 -25 -28 28 14 62 29 76 31 30 7 42 26 27 47 -8 11 -9 11
-5 -2z"/>
<path d="M1245 3910 c-109 -55 -161 -116 -172 -201 l-6 -39 34 12 c85 29 157
106 180 191 14 54 9 60 -36 37z"/>
<path d="M3707 3908 c11 -43 60 -143 82 -165 28 -29 94 -63 122 -63 19 0 21 4
14 37 -14 78 -61 132 -155 182 -32 17 -60 31 -63 31 -3 0 -3 -10 0 -22z"/>
<path d="M1900 3836 c0 -2 7 -7 16 -10 8 -3 12 -2 9 4 -6 10 -25 14 -25 6z"/>
<path d="M3150 3785 c-41 -25 -71 -45 -67 -45 10 0 147 80 147 86 0 7 -2 5
-80 -41z"/>
<path d="M1941 3816 c2 -2 15 -9 29 -15 24 -11 24 -11 6 3 -16 13 -49 24 -35
12z"/>
<path d="M2020 3776 c0 -2 7 -7 16 -10 8 -3 12 -2 9 4 -6 10 -25 14 -25 6z"/>
<path d="M2061 3756 c10 -9 69 -36 69 -32 0 6 -55 36 -66 36 -4 0 -5 -2 -3 -4z"/>
<path d="M3046 3725 c-11 -8 -15 -15 -9 -15 6 0 16 7 23 15 16 19 11 19 -14 0z"/>
<path d="M2150 3710 c8 -5 20 -10 25 -10 6 0 3 5 -5 10 -8 5 -19 10 -25 10 -5
0 -3 -5 5 -10z"/>
<path d="M2917 3651 c-82 -49 -139 -88 -102 -69 32 16 205 121 205 124 0 6 -1
6 -103 -55z"/>
<path d="M2197 3689 c7 -7 15 -10 18 -7 3 3 -2 9 -12 12 -14 6 -15 5 -6 -5z"/>
<path d="M2251 3666 c2 -2 15 -9 29 -15 24 -11 24 -11 6 3 -16 13 -49 24 -35
12z"/>
<path d="M2311 3636 c2 -2 15 -9 29 -15 24 -11 24 -11 6 3 -16 13 -49 24 -35
12z"/>
<path d="M2371 3606 c2 -2 15 -9 29 -15 24 -11 24 -11 6 3 -16 13 -49 24 -35
12z"/>
<path d="M874 3166 c31 -124 95 -211 186 -255 l57 -28 -17 63 c-16 59 -28 83
-62 125 -18 22 -104 87 -141 105 l-30 16 7 -26z"/>
<path d="M4048 3144 c-90 -61 -138 -124 -153 -202 -2 -13 -7 -33 -11 -45 -6
-20 -5 -21 11 -7 9 8 24 15 32 16 26 4 90 52 117 87 42 55 99 198 79 197 -5 0
-38 -21 -75 -46z"/>
<path d="M1110 2581 c15 -30 120 -120 163 -143 30 -15 65 -21 127 -24 47 -2
78 -1 70 2 -8 3 -28 25 -43 50 -16 24 -48 55 -71 69 -46 27 -139 54 -210 60
-42 3 -45 2 -36 -14z"/>
<path d="M1680 2507 c1 -22 48 -128 74 -166 27 -38 69 -68 123 -87 l32 -11 -5
36 c-12 72 -74 162 -144 206 -44 27 -80 37 -80 22z"/>
<path d="M3244 2482 c-103 -68 -139 -115 -151 -198 l-6 -45 39 16 c77 32 151
109 173 178 17 58 21 87 13 87 -5 0 -35 -17 -68 -38z"/>
<path d="M1941 2353 c40 -67 70 -104 111 -133 38 -28 131 -56 149 -45 12 8
-33 94 -63 121 -31 29 -91 58 -157 78 -30 9 -56 16 -59 16 -2 0 6 -17 19 -37z"/>
<path d="M2987 2366 c-37 -14 -76 -30 -85 -37 -48 -37 -76 -69 -97 -111 -26
-54 -25 -55 54 -37 75 17 151 87 215 197 10 18 -10 15 -87 -12z"/>
<path d="M2805 2112 c-11 -2 -44 -10 -74 -18 l-53 -15 23 -25 c43 -46 120 -75
196 -75 69 0 148 12 193 29 24 9 22 11 -35 39 -104 53 -191 75 -250 65z"/>
<path d="M680 1895 c0 -13 97 -15 810 -15 713 0 810 2 810 15 0 13 -97 15
-810 15 -713 0 -810 -2 -810 -15z"/>
<path d="M2700 1895 c0 -13 94 -15 807 -13 634 2 807 6 811 16 3 9 -163 12
-807 12 -716 0 -811 -2 -811 -15z"/>
<path d="M2049 1747 c-82 -23 -138 -87 -155 -177 l-7 -35 50 51 c45 47 122
104 140 104 4 0 -10 -12 -32 -26 -60 -40 -137 -125 -166 -184 l-26 -52 2 38
c4 60 -13 91 -78 144 -34 28 -65 50 -69 50 -4 0 -10 -10 -13 -22 -19 -90 -9
-133 45 -194 34 -39 58 -83 63 -113 6 -38 17 -35 18 5 4 96 -17 186 -54 234
-10 13 -10 13 5 2 19 -15 58 -111 58 -143 0 -11 5 -17 10 -14 7 4 8 -3 4 -22
-6 -26 -4 -25 21 12 37 53 49 61 126 85 59 18 102 42 134 75 41 42 121 173
111 183 -13 12 -141 12 -187 -1z m68 -53 c-3 -3 -12 -4 -19 -1 -8 3 -5 6 6 6
11 1 17 -2 13 -5z"/>
<path d="M882 1602 c-11 -3 -122 -156 -122 -167 0 -3 15 -5 34 -5 31 0 39 7
94 84 l60 84 -28 4 c-15 2 -32 2 -38 0z"/>
<path d="M1010 1600 c0 -5 -6 -15 -13 -22 -6 -7 -24 -31 -38 -53 -14 -22 -33
-52 -43 -66 -16 -25 -16 -26 5 -25 15 1 37 25 74 83 48 72 51 82 34 86 -10 3
-19 1 -19 -3z"/>
<path d="M1059 1589 c-11 -9 -19 -19 -19 -22 0 -3 -18 -32 -40 -63 -22 -32
-40 -61 -40 -65 0 -4 169 -7 375 -7 206 0 375 2 375 5 0 3 -10 19 -22 35 -12
17 -23 51 -26 77 -2 25 -6 48 -8 50 -2 3 -133 5 -290 5 -250 1 -289 -1 -305
-15z"/>
<path d="M2159 1567 c-32 -40 -121 -96 -154 -97 -11 -1 -36 -9 -55 -20 -34
-18 -19 -18 965 -19 550 0 1017 0 1039 -1 l38 0 -206 -201 -206 -202 2 -66 3
-66 135 -1 c226 -2 327 -49 369 -173 36 -109 -20 -250 -122 -303 -37 -20 -60
-23 -201 -25 -114 -2 -163 -6 -172 -15 -17 -19 -104 -149 -104 -157 0 -8 435
-6 480 3 231 45 373 321 294 570 -43 137 -182 247 -332 262 -34 4 -62 10 -62
15 0 4 43 44 95 88 176 151 227 217 227 295 0 64 -25 104 -80 128 -46 21 -60
21 -985 22 l-938 1 -30 -38z"/>
<path d="M939 1568 c-13 -18 -26 -35 -29 -38 -8 -8 -60 -89 -60 -95 0 -3 8 -5
18 -5 10 1 39 34 74 85 46 69 53 85 38 85 -10 0 -29 -15 -41 -32z"/>
<path d="M974 1339 c-17 -5 -39 -18 -50 -30 -18 -20 -19 -43 -22 -388 -2 -228
1 -377 7 -394 20 -52 50 -61 210 -62 80 -1 160 2 177 7 67 18 89 108 40 165
-22 26 -29 28 -112 29 -49 1 -97 3 -106 3 -16 1 -17 27 -20 310 -3 284 -4 311
-21 329 -26 28 -66 40 -103 31z"/>
<path d="M1643 1334 c-19 -10 -36 -28 -42 -46 -7 -20 -11 -162 -11 -390 0
-400 1 -407 64 -428 43 -14 77 -5 107 26 l23 25 1 367 c1 202 -3 380 -8 395
-17 53 -81 77 -134 51z"/>
<path d="M1920 1338 c-14 -5 -33 -20 -43 -34 -17 -23 -18 -53 -19 -398 0 -412
0 -410 62 -436 37 -15 75 -6 106 25 l24 24 0 384 0 384 -25 27 c-13 14 -30 26
-37 27 -7 0 -20 2 -28 3 -8 2 -26 -1 -40 -6z"/>
<path d="M2950 1333 c-8 -2 -24 -16 -35 -31 -19 -26 -20 -44 -21 -387 -1 -198
3 -371 8 -384 12 -34 46 -61 77 -62 142 -5 332 1 351 11 50 27 58 115 14 160
-25 26 -38 27 -221 30 l-33 0 0 68 0 68 98 -1 c53 0 110 3 125 8 63 21 82 117
33 165 -25 26 -31 27 -139 28 l-112 2 -3 66 -3 66 105 0 c114 0 147 9 167 46
27 51 8 122 -38 143 -23 11 -339 14 -373 4z"/>
<path d="M2154 1318 c-28 -13 -47 -50 -46 -85 0 -15 39 -152 85 -303 47 -151
93 -303 102 -337 23 -81 54 -113 108 -113 71 0 76 9 202 395 63 193 113 360
111 372 -14 71 -84 103 -147 66 -34 -20 -35 -23 -94 -228 -26 -88 -51 -176
-57 -195 l-11 -34 -13 44 c-8 25 -16 54 -18 65 -2 11 -23 88 -45 170 -32 119
-46 155 -66 173 -28 24 -75 28 -111 10z"/>
<path d="M837 370 c-18 -14 -30 -38 -38 -76 -17 -75 -6 -85 92 -89 90 -3 133
13 148 57 18 52 16 55 -44 53 -59 -2 -91 -19 -66 -34 8 -5 20 -7 28 -4 7 3 13
0 13 -6 0 -12 -1 -12 -40 -17 -40 -4 -60 5 -60 30 0 43 20 55 95 58 64 3 70 5
73 26 3 21 1 22 -86 22 -74 0 -94 -3 -115 -20z"/>
<path d="M1185 315 c-17 -69 -17 -77 -3 -91 19 -19 126 -27 180 -13 42 11 57
31 75 104 18 73 17 75 -21 75 -34 0 -35 -1 -47 -54 -16 -72 -19 -77 -67 -83
-52 -7 -58 5 -39 81 l15 56 -37 0 -37 0 -19 -75z"/>
<path d="M1592 377 c-14 -16 -53 -157 -47 -168 3 -4 18 -6 33 -4 15 2 30 4 35
4 4 1 7 10 7 21 0 17 7 20 49 20 44 0 50 -3 53 -22 3 -22 21 -26 69 -19 4 1 6
18 5 39 -1 22 4 46 15 59 21 29 14 69 -14 77 -43 11 -194 6 -205 -7z m156 -54
c-4 -23 -108 -33 -108 -10 0 22 11 27 62 27 42 0 49 -3 46 -17z"/>
<path d="M1966 378 c-49 -168 -45 -176 102 -173 88 2 106 16 128 94 9 31 18
64 21 74 4 16 -1 18 -33 15 -36 -3 -38 -5 -53 -58 -21 -73 -27 -80 -64 -80
-53 0 -58 9 -42 70 8 30 15 58 15 63 0 12 -70 8 -74 -5z"/>
<path d="M2344 363 c-3 -16 -12 -50 -20 -77 -21 -75 -19 -83 21 -82 32 1 35 4
41 39 8 47 28 46 62 -3 17 -26 30 -35 50 -35 36 1 39 25 7 64 -25 29 -25 31
-8 38 19 8 73 63 73 75 0 21 -61 6 -88 -22 -17 -16 -40 -30 -52 -30 -19 0 -21
4 -15 30 6 29 5 30 -29 30 -31 0 -36 -4 -42 -27z"/>
<path d="M2699 348 c-6 -24 -15 -56 -20 -71 -9 -31 5 -63 31 -69 8 -2 47 -4
86 -3 95 1 118 17 140 93 8 31 18 65 21 75 4 16 -1 18 -33 15 -37 -3 -38 -4
-52 -58 -7 -30 -18 -59 -23 -65 -11 -11 -88 -15 -94 -5 -3 6 9 72 21 113 4 14
-1 17 -30 17 -33 0 -36 -3 -47 -42z"/>
<path d="M3081 353 c-5 -21 -15 -58 -21 -82 -8 -30 -8 -47 -1 -54 6 -6 47 -11
92 -12 77 -2 81 -1 90 22 5 13 9 25 9 26 0 1 -26 2 -57 2 -46 0 -58 3 -57 15
2 18 10 56 19 93 7 26 5 27 -29 27 -32 0 -36 -3 -45 -37z"/>
<path d="M3398 373 c-13 -16 -84 -120 -101 -149 -4 -8 5 -11 30 -10 34 2 41 8
91 82 61 90 66 96 56 69 -5 -11 -27 -47 -51 -81 -34 -48 -40 -63 -28 -68 15
-5 37 20 91 104 16 25 32 47 37 48 4 2 7 8 7 13 0 5 -26 9 -58 9 -44 0 -63 -5
-74 -17z"/>
<path d="M3537 376 c-3 -8 -28 -45 -56 -84 -27 -39 -47 -72 -45 -75 7 -7 44 4
44 12 0 4 23 38 50 76 28 38 50 73 50 77 0 14 -38 9 -43 -6z"/>
</g>
</svg>
